<?xml version="1.0" encoding="UTF-8" standalone="no"?>
<svg
   height="20"
   viewBox="0 0 20 20"
   width="20"
   fill="#000000"
   version="1.1"
   id="svg6"
   sodipodi:docname="contact.svg"
   inkscape:version="1.1.1 (3bf5ae0d25, 2021-09-20)"
   xmlns:inkscape="http://www.inkscape.org/namespaces/inkscape"
   xmlns:sodipodi="http://sodipodi.sourceforge.net/DTD/sodipodi-0.dtd"
   xmlns="http://www.w3.org/2000/svg"
   xmlns:svg="http://www.w3.org/2000/svg">
  <defs
     id="defs10" />
  <sodipodi:namedview
     id="namedview8"
     pagecolor="#505050"
     bordercolor="#eeeeee"
     borderopacity="1"
     inkscape:pageshadow="0"
     inkscape:pageopacity="0"
     inkscape:pagecheckerboard="0"
     showgrid="false"
     fit-margin-top="0"
     fit-margin-left="0"
     fit-margin-right="0"
     fit-margin-bottom="0"
     inkscape:zoom="24.587027"
     inkscape:cx="6.9548871"
     inkscape:cy="10.493338"
     inkscape:window-width="1920"
     inkscape:window-height="1011"
     inkscape:window-x="0"
     inkscape:window-y="0"
     inkscape:window-maximized="1"
     inkscape:current-layer="svg6" />
  <path
     d="m -2,-1.95 h 24 v 24 H -2 Z"
     fill="none"
     id="path2" />
  <path
     d="M 10,0 C 4.48,0 0,4.48 0,10 0,15.52 4.48,20 10,20 h 5 V 18 H 10 C 5.66,18 2,14.34 2,10 2,5.66 5.66,2 10,2 c 4.34,0 8,3.66 8,8 v 1.43 C 18,12.22 17.29,13 16.5,13 15.71,13 15,12.22 15,11.43 V 10 C 15,7.24 12.76,5 10,5 7.24,5 5,7.24 5,10 c 0,2.76 2.24,5 5,5 1.38,0 2.64,-0.56 3.54,-1.47 0.65,0.89 1.77,1.47 2.96,1.47 1.97,0 3.5,-1.6 3.5,-3.57 V 10 C 20,4.48 15.52,0 10,0 Z m 0,13 C 8.34,13 7,11.66 7,10 7,8.34 8.34,7 10,7 c 1.66,0 3,1.34 3,3 0,1.66 -1.34,3 -3,3 z"
     id="path4"
     style="fill:#55ddff" />
</svg>
