<?xml version="1.0" encoding="UTF-8" standalone="no"?>
<svg
   enable-background="new 0 0 24 24"
   height="18.918533"
   viewBox="0 0 19.918381 18.918533"
   width="19.918381"
   fill="#000000"
   version="1.1"
   id="svg6"
   sodipodi:docname="interests.svg"
   inkscape:version="1.1.1 (3bf5ae0d25, 2021-09-20)"
   xmlns:inkscape="http://www.inkscape.org/namespaces/inkscape"
   xmlns:sodipodi="http://sodipodi.sourceforge.net/DTD/sodipodi-0.dtd"
   xmlns="http://www.w3.org/2000/svg"
   xmlns:svg="http://www.w3.org/2000/svg">
  <defs
     id="defs10" />
  <sodipodi:namedview
     id="namedview8"
     pagecolor="#505050"
     bordercolor="#eeeeee"
     borderopacity="1"
     inkscape:pageshadow="0"
     inkscape:pageopacity="0"
     inkscape:pagecheckerboard="0"
     showgrid="false"
     inkscape:zoom="15.113251"
     inkscape:cx="-7.8738849"
     inkscape:cy="2.3820156"
     inkscape:window-width="1920"
     inkscape:window-height="1011"
     inkscape:window-x="0"
     inkscape:window-y="0"
     inkscape:window-maximized="1"
     inkscape:current-layer="svg6"
     fit-margin-top="0"
     fit-margin-left="0"
     fit-margin-right="0"
     fit-margin-bottom="0" />
  <rect
     fill="none"
     height="24"
     width="24"
     id="rect2"
     x="-2.0582881"
     y="-2.0513783" />
  <path
     d="m 4.9617118,10.948622 c -2.21,0 -4,1.79 -4,4 0,2.21 1.79,4 4,4 2.21,0 4,-1.79 4,-4 0,-2.21 -1.79,-4 -4,-4 z m 0,6 c -1.1,0 -2,-0.9 -2,-2 0,-1.1 0.9,-2 2,-2 1.1,0 2,0.9 2,2 0,1.1 -0.9,2 -2,2 z m 5.9800002,-6 v 8 h 8 v -8 z m 6,6 h -4 v -4 h 4 z M 4.9417118,-0.05137833 l -5,9.00000003 h 10 z m 0,4.12000003 1.6,2.88 h -3.2 z M 17.191712,0.44862167 c -1.06,0 -1.81,0.56000003 -2.25,1.17000003 -0.44,-0.61 -1.19,-1.17000003 -2.25,-1.17000003 -1.56,0 -2.7500002,1.28000003 -2.7500002,2.75000003 0,2 2.4200002,3.42 5.0000002,5.75 2.58,-2.33 5,-3.75 5,-5.75 0,-1.47 -1.19,-2.75000003 -2.75,-2.75000003 z m -2.25,5.85000003 c -1.45,-1.22 -3,-2.4 -3,-3.1 0,-0.43 0.35,-0.75 0.75,-0.75 0.31,0 0.52,0.17 0.73,0.37 l 1.52,1.43 1.52,-1.43 c 0.21,-0.2 0.42,-0.37 0.73,-0.37 0.4,0 0.75,0.32 0.75,0.75 0,0.7 -1.55,1.88 -3,3.1 z"
     id="path4" />
  <path
     style="fill:#3bccff;fill-opacity:1;stroke-width:0.0351844"
     d="M 0,8.9067117 C 0,8.8821317 4.9391192,-0.00934243 4.9475786,7.3686439e-6 4.9640436,0.01820437 9.8623898,8.8439227 9.8772568,8.8821787 c 0.01362,0.03506 -0.986683,0.04398 -4.9300821,0.04398 C 2.2262286,8.9261587 0,8.9173587 0,8.9067087 Z M 6.5434806,6.9294435 C 6.5416359,6.8701335 4.9758749,4.0949909 4.9434103,4.0934917 4.9114224,4.0920143 3.3452547,6.8678771 3.3433401,6.9294435 c -4.514e-4,0.014514 0.7195802,0.026388 1.6000702,0.026388 0.88049,0 1.6005214,-0.011875 1.6000703,-0.026388 z"
     id="path1038" />
  <path
     style="fill:#48ff48;fill-opacity:1;stroke-width:0.0351844"
     d="M 14.902545,8.8941227 C 14.875132,8.8497677 14.003896,8.1019007 12.788088,7.0790775 11.325985,5.8490543 10.606753,5.079035 10.257482,4.3697773 10.028557,3.9049026 9.9762698,3.6777134 9.9781158,3.155915 c 0.0014,-0.4010165 0.01158,-0.4692845 0.1152582,-0.7740571 0.160417,-0.4715807 0.350401,-0.7754083 0.704764,-1.1270807 0.349826,-0.34716893 0.75103,-0.57815083 1.215556,-0.69982173 0.378406,-0.099114 0.955935,-0.1002816 1.341959,-0.00271 0.537122,0.135758 1.078813,0.47616873 1.418318,0.89130363 L 14.928818,1.63289 15.248961,1.3086626 c 0.35855,-0.36312433 0.657978,-0.55743873 1.0942,-0.71008283 0.26282,-0.091967 0.318786,-0.098514 0.844426,-0.09879 0.542231,-2.839e-4 0.574296,0.00376 0.871208,0.1099989 0.714528,0.2556557 1.263451,0.74317043 1.579314,1.40263603 0.379166,0.7916301 0.373592,1.5856883 -0.01658,2.3625732 -0.407112,0.8106081 -1.053532,1.4771818 -3.067259,3.1628879 -0.749657,0.6275439 -1.200487,1.0125499 -1.553198,1.3264239 -0.04857,0.04323 -0.08367,0.05385 -0.09852,0.02982 z m 0.736927,-3.1496899 c 1.834388,-1.5325519 2.30458,-2.0557167 2.30458,-2.564222 0,-0.6152354 -0.696421,-0.9519676 -1.227312,-0.5934274 -0.07667,0.051778 -0.505976,0.4401542 -0.954018,0.8630579 L 14.9481,4.2187574 14.85765,4.1359374 C 14.807899,4.0903864 14.426543,3.733627 14.010189,3.3431386 13.593835,2.9526501 13.175316,2.5907791 13.080146,2.5389809 12.877957,2.4289359 12.583399,2.4102497 12.384914,2.4948766 12.09719,2.6175518 11.90506,2.9450143 11.935421,3.2609847 c 0.03116,0.3242991 0.399895,0.80717 1.100405,1.4410201 0.700661,0.6339876 1.89375,1.6175834 1.933277,1.5938163 0.02038,-0.012253 0.322044,-0.2603773 0.670369,-0.5513883 z"
     id="path1151" />
  <path
     style="fill:#ffd400;fill-opacity:1;stroke-width:0.0351844"
     d="M 4.1693532,18.849036 C 2.2940134,18.443125 0.9860987,16.836793 0.9853051,14.938507 0.9849482,14.08481 1.2883101,13.195598 1.812115,12.51497 c 0.4010108,-0.521071 1.0735682,-1.024679 1.6887343,-1.264517 1.8949502,-0.738794 4.0051872,0.03697 4.9710575,1.827467 0.581229,1.07746 0.61814,2.440959 0.09595,3.544252 -0.511286,1.080245 -1.4664346,1.8773 -2.6119283,2.179608 -0.4795523,0.126559 -1.3177566,0.14873 -1.7865713,0.04726 z M 5.682283,16.826327 c 0.9343471,-0.374468 1.4490627,-1.330198 1.2456349,-2.31291 -0.1337142,-0.64594 -0.6801503,-1.254227 -1.3268954,-1.477085 -0.1925457,-0.06635 -0.3090589,-0.08111 -0.64002,-0.08111 -0.3309612,0 -0.4474743,0.01477 -0.6400201,0.08111 -0.6467448,0.222858 -1.1931811,0.831145 -1.3268951,1.477085 -0.1813731,0.87617 0.2397528,1.795252 1.0074287,2.198655 0.3743617,0.196721 0.5613129,0.23744 1.0298553,0.224306 0.3450662,-0.0097 0.4408713,-0.02587 0.6509117,-0.110051 z"
     id="path1496" />
  <path
     style="fill:#ff3333;fill-opacity:1;stroke-width:0.0351844"
     d="m 10.942353,14.942694 v -3.975839 h 3.993431 3.993431 v 3.975839 3.975839 h -3.993431 -3.993431 z m 6.016535,0 V 12.937183 H 14.935784 12.91268 v 2.005511 2.005512 h 2.023104 2.023104 z"
     id="path1572" />
</svg>
